<svg id="visual" viewBox="0 0 900 600" width="900" height="600" xmlns="http://www.w3.org/2000/svg" xmlns:xlink="http://www.w3.org/1999/xlink" version="1.1"><rect x="0" y="0" width="900" height="600" fill="#001220"></rect><defs><linearGradient id="grad1_0" x1="33.3%" y1="0%" x2="100%" y2="100%"><stop offset="20%" stop-color="#001220" stop-opacity="1"></stop><stop offset="80%" stop-color="#001220" stop-opacity="1"></stop></linearGradient></defs><defs><linearGradient id="grad2_0" x1="0%" y1="0%" x2="66.7%" y2="100%"><stop offset="20%" stop-color="#001220" stop-opacity="1"></stop><stop offset="80%" stop-color="#001220" stop-opacity="1"></stop></linearGradient></defs><g transform="translate(900, 0)"><path d="M0 324.5C-33.6 302.2 -67.2 279.9 -111.4 268.8C-155.5 257.8 -210.1 258 -229.5 229.5C-248.8 200.9 -233 143.7 -243 100.6C-253 57.6 -288.7 28.8 -324.5 0L0 0Z" fill="#FBAE3C"></path></g><g transform="translate(0, 600)"><path d="M0 -324.5C46.4 -323.7 92.8 -323 124.2 -299.8C155.6 -276.6 171.9 -231 199.4 -199.4C226.9 -167.8 265.5 -150.3 288.3 -119.4C311 -88.5 317.7 -44.3 324.5 0L0 0Z" fill="#FBAE3C"></path></g></svg>