<svg id="visual" viewBox="0 0 900 600" width="900" height="600" xmlns="http://www.w3.org/2000/svg" xmlns:xlink="http://www.w3.org/1999/xlink" version="1.1"><g stroke-width="1" stroke-linejoin="bevel"><path d="M460 265L489 217L418 211Z" fill="#205a7a" stroke="#205a7a"></path><path d="M418 211L411 321L460 265Z" fill="#297ea6" stroke="#297ea6"></path><path d="M489 217L398 128L418 211Z" fill="#00101c" stroke="#00101c"></path><path d="M418 211L310 285L411 321Z" fill="#1d4e6b" stroke="#1d4e6b"></path><path d="M460 387L572 308L460 265Z" fill="#246688" stroke="#246688"></path><path d="M460 265L572 308L489 217Z" fill="#277297" stroke="#277297"></path><path d="M611 233L516 95L489 217Z" fill="#297ea6" stroke="#297ea6"></path><path d="M489 217L516 95L398 128Z" fill="#112e42" stroke="#112e42"></path><path d="M274 172L310 285L418 211Z" fill="#15384f" stroke="#15384f"></path><path d="M572 308L611 233L489 217Z" fill="#0c2435" stroke="#0c2435"></path><path d="M388 425L460 387L411 321Z" fill="#1d4e6b" stroke="#1d4e6b"></path><path d="M411 321L460 387L460 265Z" fill="#0c2435" stroke="#0c2435"></path><path d="M398 128L274 172L418 211Z" fill="#0c2435" stroke="#0c2435"></path><path d="M394 0L332 81L398 128Z" fill="#00101c" stroke="#00101c"></path><path d="M398 128L332 81L274 172Z" fill="#0c2435" stroke="#0c2435"></path><path d="M323 406L388 425L411 321Z" fill="#277297" stroke="#277297"></path><path d="M310 285L323 406L411 321Z" fill="#277297" stroke="#277297"></path><path d="M207 372L323 406L310 285Z" fill="#246688" stroke="#246688"></path><path d="M664 134L606 60L516 95Z" fill="#205a7a" stroke="#205a7a"></path><path d="M516 95L475 0L398 128Z" fill="#0c2435" stroke="#0c2435"></path><path d="M569 0L475 0L516 95Z" fill="#112e42" stroke="#112e42"></path><path d="M611 233L664 134L516 95Z" fill="#205a7a" stroke="#205a7a"></path><path d="M699 209L664 134L611 233Z" fill="#0c2435" stroke="#0c2435"></path><path d="M475 0L394 0L398 128Z" fill="#15384f" stroke="#15384f"></path><path d="M274 172L223 298L310 285Z" fill="#297ea6" stroke="#297ea6"></path><path d="M388 425L474 470L460 387Z" fill="#246688" stroke="#246688"></path><path d="M460 387L627 405L572 308Z" fill="#19435d" stroke="#19435d"></path><path d="M374 497L474 470L388 425Z" fill="#277297" stroke="#277297"></path><path d="M736 316L611 233L572 308Z" fill="#081a28" stroke="#081a28"></path><path d="M736 316L699 209L611 233Z" fill="#19435d" stroke="#19435d"></path><path d="M597 469L627 405L460 387Z" fill="#1d4e6b" stroke="#1d4e6b"></path><path d="M724 0L569 0L606 60Z" fill="#277297" stroke="#277297"></path><path d="M606 60L569 0L516 95Z" fill="#297ea6" stroke="#297ea6"></path><path d="M207 372L326 460L323 406Z" fill="#19435d" stroke="#19435d"></path><path d="M323 406L326 460L388 425Z" fill="#205a7a" stroke="#205a7a"></path><path d="M394 0L298 0L332 81Z" fill="#19435d" stroke="#19435d"></path><path d="M332 81L198 76L274 172Z" fill="#277297" stroke="#277297"></path><path d="M274 172L176 231L223 298Z" fill="#081a28" stroke="#081a28"></path><path d="M198 76L176 231L274 172Z" fill="#1d4e6b" stroke="#1d4e6b"></path><path d="M223 298L207 372L310 285Z" fill="#277297" stroke="#277297"></path><path d="M326 460L374 497L388 425Z" fill="#19435d" stroke="#19435d"></path><path d="M474 470L597 469L460 387Z" fill="#205a7a" stroke="#205a7a"></path><path d="M679 502L597 469L571 600Z" fill="#205a7a" stroke="#205a7a"></path><path d="M130 314L207 372L223 298Z" fill="#205a7a" stroke="#205a7a"></path><path d="M333 600L413 600L374 497Z" fill="#15384f" stroke="#15384f"></path><path d="M298 0L198 76L332 81Z" fill="#297ea6" stroke="#297ea6"></path><path d="M696 408L736 316L627 405Z" fill="#1d4e6b" stroke="#1d4e6b"></path><path d="M627 405L736 316L572 308Z" fill="#0c2435" stroke="#0c2435"></path><path d="M679 502L696 408L627 405Z" fill="#15384f" stroke="#15384f"></path><path d="M787 298L761 180L699 209Z" fill="#112e42" stroke="#112e42"></path><path d="M699 209L761 180L664 134Z" fill="#19435d" stroke="#19435d"></path><path d="M664 134L724 0L606 60Z" fill="#277297" stroke="#277297"></path><path d="M298 0L221 0L198 76Z" fill="#0c2435" stroke="#0c2435"></path><path d="M93 183L130 314L176 231Z" fill="#0c2435" stroke="#0c2435"></path><path d="M176 231L130 314L223 298Z" fill="#1d4e6b" stroke="#1d4e6b"></path><path d="M736 316L787 298L699 209Z" fill="#205a7a" stroke="#205a7a"></path><path d="M773 405L787 298L736 316Z" fill="#00101c" stroke="#00101c"></path><path d="M817 66L664 134L761 180Z" fill="#277297" stroke="#277297"></path><path d="M817 66L724 0L664 134Z" fill="#1d4e6b" stroke="#1d4e6b"></path><path d="M597 469L679 502L627 405Z" fill="#19435d" stroke="#19435d"></path><path d="M696 408L773 405L736 316Z" fill="#0c2435" stroke="#0c2435"></path><path d="M508 600L597 469L474 470Z" fill="#277297" stroke="#277297"></path><path d="M87 106L93 183L198 76Z" fill="#1d4e6b" stroke="#1d4e6b"></path><path d="M198 76L93 183L176 231Z" fill="#205a7a" stroke="#205a7a"></path><path d="M774 498L773 405L696 408Z" fill="#277297" stroke="#277297"></path><path d="M207 372L171 464L326 460Z" fill="#205a7a" stroke="#205a7a"></path><path d="M68 433L171 464L207 372Z" fill="#081a28" stroke="#081a28"></path><path d="M68 433L207 372L130 314Z" fill="#205a7a" stroke="#205a7a"></path><path d="M333 600L374 497L326 460Z" fill="#297ea6" stroke="#297ea6"></path><path d="M374 497L413 600L474 470Z" fill="#297ea6" stroke="#297ea6"></path><path d="M413 600L508 600L474 470Z" fill="#081a28" stroke="#081a28"></path><path d="M138 0L87 106L198 76Z" fill="#205a7a" stroke="#205a7a"></path><path d="M221 0L138 0L198 76Z" fill="#205a7a" stroke="#205a7a"></path><path d="M508 600L571 600L597 469Z" fill="#1d4e6b" stroke="#1d4e6b"></path><path d="M200 600L333 600L326 460Z" fill="#00101c" stroke="#00101c"></path><path d="M900 173L817 66L761 180Z" fill="#297ea6" stroke="#297ea6"></path><path d="M817 66L788 0L724 0Z" fill="#0c2435" stroke="#0c2435"></path><path d="M680 600L774 498L679 502Z" fill="#1d4e6b" stroke="#1d4e6b"></path><path d="M679 502L774 498L696 408Z" fill="#00101c" stroke="#00101c"></path><path d="M900 299L900 173L787 298Z" fill="#081a28" stroke="#081a28"></path><path d="M787 298L900 173L761 180Z" fill="#00101c" stroke="#00101c"></path><path d="M0 267L130 314L93 183Z" fill="#205a7a" stroke="#205a7a"></path><path d="M0 420L68 433L130 314Z" fill="#00101c" stroke="#00101c"></path><path d="M171 464L200 600L326 460Z" fill="#081a28" stroke="#081a28"></path><path d="M571 600L680 600L679 502Z" fill="#112e42" stroke="#112e42"></path><path d="M68 433L79 467L171 464Z" fill="#15384f" stroke="#15384f"></path><path d="M73 600L200 600L171 464Z" fill="#112e42" stroke="#112e42"></path><path d="M900 299L787 298L900 390Z" fill="#081a28" stroke="#081a28"></path><path d="M817 66L900 0L788 0Z" fill="#0c2435" stroke="#0c2435"></path><path d="M900 390L787 298L773 405Z" fill="#277297" stroke="#277297"></path><path d="M68 433L0 494L79 467Z" fill="#205a7a" stroke="#205a7a"></path><path d="M0 170L0 267L93 183Z" fill="#00101c" stroke="#00101c"></path><path d="M0 170L93 183L87 106Z" fill="#0c2435" stroke="#0c2435"></path><path d="M0 106L0 170L87 106Z" fill="#00101c" stroke="#00101c"></path><path d="M0 0L0 106L87 106Z" fill="#15384f" stroke="#15384f"></path><path d="M900 173L900 81L817 66Z" fill="#15384f" stroke="#15384f"></path><path d="M900 495L773 405L774 498Z" fill="#15384f" stroke="#15384f"></path><path d="M900 495L900 390L773 405Z" fill="#081a28" stroke="#081a28"></path><path d="M0 267L0 420L130 314Z" fill="#205a7a" stroke="#205a7a"></path><path d="M79 467L73 600L171 464Z" fill="#277297" stroke="#277297"></path><path d="M900 81L900 0L817 66Z" fill="#15384f" stroke="#15384f"></path><path d="M138 0L0 0L87 106Z" fill="#112e42" stroke="#112e42"></path><path d="M680 600L812 600L774 498Z" fill="#205a7a" stroke="#205a7a"></path><path d="M812 600L900 495L774 498Z" fill="#15384f" stroke="#15384f"></path><path d="M0 420L0 494L68 433Z" fill="#246688" stroke="#246688"></path><path d="M0 494L73 600L79 467Z" fill="#081a28" stroke="#081a28"></path><path d="M812 600L900 600L900 495Z" fill="#246688" stroke="#246688"></path><path d="M0 494L0 600L73 600Z" fill="#0c2435" stroke="#0c2435"></path></g></svg>